<svg xmlns="http://www.w3.org/2000/svg" id="home-link" class="telda-logo" viewbox="0 0 33 50">
<path d="M22.9654 5.74481C24.5275 7.38224 25.6708 9.2664 25.7088 10.8661L31.5123 10.7977C32.7301 10.7833 34.7375 10.5078 33.7227 12.0675L32.0826 14.5884C31.4421 15.5728 30.8489 15.4766 30.3205 15.4859L25.6033 15.5694C24.783 21.8082 19.5591 25.7839 12.644 27.259C10.7469 27.595 10.418 28.2403 11.4671 29.5706L26.8664 49.0976C27.6149 50.0468 28.3467 50.9961 26.8664 50.9969L21.3071 51C20.6903 51.0003 20.2113 50.8563 19.7016 50.223L3.01619 29.4926C2.23503 28.5221 2.08585 27.7619 2.09897 27.2034L2.15468 24.8305C2.17758 23.8552 3.41821 23.9009 4.89371 23.9575C12.1298 24.1341 17.574 22.6403 18.9557 15.4649L1.94312 15.3675C1.20687 15.3633 0.8648 15.088 1.31762 14.3351L3.09507 11.3799C3.49162 10.7206 3.83861 10.4507 5.15448 10.4696L18.217 10.6571C16.1282 6.34496 10.5976 5.59367 2.01998 5.8003C0.458207 5.84675 0.8779 5.11639 2.01998 3.44544L2.83775 2.2435C3.6726 1.04153 4.13494 1.04084 5.14893 1.03934L5.15448 1.03933L29.3336 1.00345L31.5211 1.00021L32.7301 1C33.9392 0.999792 34.2682 1.49017 33.7227 2.31431L32.0826 4.85979C31.5123 5.74481 31.5123 5.74481 30.3205 5.74481H29.3336H22.9654Z" fill="white"></path>
<path d="M5.15448 1.03933L29.3336 1.00345L31.5211 1.00021L32.7301 1C33.9392 0.999792 34.2682 1.49017 33.7227 2.31431L32.0826 4.85979C31.5123 5.74482 31.5123 5.74482 30.3205 5.74482H29.3336H22.9654C24.5275 7.38224 25.6708 9.2664 25.7088 10.8661L31.5123 10.7977C32.7301 10.7833 34.7375 10.5078 33.7227 12.0675L32.0826 14.5884C31.4421 15.5728 30.8489 15.4766 30.3205 15.4859L25.6033 15.5694C24.783 21.8082 19.5591 25.7839 12.644 27.259C10.7469 27.595 10.418 28.2403 11.4671 29.5706L26.8664 49.0976C27.6149 50.0468 28.3467 50.9961 26.8664 50.9969L21.3071 51C20.6903 51.0003 20.2113 50.8563 19.7016 50.223L3.01619 29.4926C2.23503 28.5221 2.08585 27.7619 2.09897 27.2034L2.15468 24.8305C2.17758 23.8552 3.41821 23.9009 4.89371 23.9575C12.1298 24.1341 17.574 22.6403 18.9557 15.4649L1.94312 15.3675C1.20687 15.3633 0.8648 15.088 1.31762 14.3351L3.09507 11.3799C3.49162 10.7206 3.83861 10.4507 5.15448 10.4696L18.217 10.6571C16.1282 6.34496 10.5976 5.59367 2.01998 5.8003C0.458207 5.84675 0.8779 5.11639 2.01998 3.44544L2.83775 2.2435C3.6726 1.04153 4.13494 1.04084 5.14893 1.03934M5.15448 1.03933L5.14893 1.03934M5.15448 1.03933C5.15263 1.03934 5.15078 1.03934 5.14893 1.03934" stroke="white" stroke-linejoin="round" fill="white"></path>
</svg>